<svg xmlns="http://www.w3.org/2000/svg" width="44" height="8" viewBox="0 0 44 8"><path d="M307.058,198.913c-2.435,0-3.616-1.868-4.4-3.1-.685-1.083-1-1.468-1.384-1.468s-.7.385-1.384,1.468c-.782,1.236-1.963,3.1-4.4,3.1s-3.616-1.868-4.4-3.1c-.685-1.083-1-1.468-1.383-1.468s-.7.384-1.383,1.468c-.782,1.236-1.963,3.1-4.4,3.1s-3.616-1.868-4.4-3.1c-.685-1.083-1-1.468-1.383-1.468s-.7.384-1.383,1.468c-.782,1.236-1.962,3.1-4.4,3.1s-3.616-1.868-4.4-3.1c-.685-1.083-1-1.467-1.383-1.467a1.715,1.715,0,1,1,0-3.429c2.435,0,3.616,1.868,4.4,3.1.684,1.083,1,1.467,1.383,1.467s.7-.384,1.383-1.467c.782-1.236,1.962-3.1,4.4-3.1s3.616,1.868,4.4,3.1c.685,1.083,1,1.467,1.383,1.467s.7-.385,1.384-1.468c.781-1.236,1.962-3.1,4.4-3.1s3.616,1.868,4.4,3.1c.685,1.083,1,1.467,1.383,1.467s.7-.385,1.384-1.468c.782-1.236,1.963-3.1,4.4-3.1s3.616,1.868,4.4,3.1c.685,1.083,1,1.468,1.384,1.468a1.715,1.715,0,1,1,0,3.429Z" transform="translate(-264.826 -190.913)" fill="#fff"/></svg>